<?xml version="1.0" encoding="utf-8"?>
<!-- Generator: Adobe Illustrator 19.0.1, SVG Export Plug-In . SVG Version: 6.00 Build 0)  -->
<svg version="1.1" id="Слой_1" xmlns="http://www.w3.org/2000/svg" xmlns:xlink="http://www.w3.org/1999/xlink" x="0px" y="0px"
	 viewBox="0 0 240 90" enable-background="new 0 0 240 90" xml:space="preserve">
<path fill="#ffffff" d="M15.2,3.9l6.3,8.6l0,12L8.7,13.4L5.3,3.8L15.2,3.9z M23.3,31.7l12.4-5.3l-8-1.4L25,26.6l-5.1,0l-3-2l-5.4,2L23.3,31.7z
	 M13.4,34.8l7-2.2L9.1,28.1l-5.7,3.5L13.4,34.8z M2.1,33.2l-0.6,4.2l8.6-1.7L2.1,33.2z M2,39.3l7.9,9.5l1.7-11.7L2,39.3z M1,41.1
	l0.1,4.2L7,47.9L1,41.1z M1.2,47.5L4,54.2l4.4-3.7L1.2,47.5z M5,55.7l7.8,7.2L9.8,51.5L5,55.7z M14.9,63.6l7.5-12l-10.6,0L14.9,63.6
	z M11.5,49.8l10.4,0l-8.8-12.2L11.5,49.8z M14.6,36.5l9.1,12.4l7.4-12.2L22.8,34L14.6,36.5z M16.7,64.3l13.4,0l-6.3-11.1L16.7,64.3z
	 M25,51.5L32,64l3.6-12.3L25,51.5z M25.5,49.9h10.1l-3.1-11.7L25.5,49.9z M37.2,48.6l6.6-8.8l-9.1-2.2L37.2,48.6z M39.5,48.9
	l5.5-3.8l0.1-3.7L39.5,48.9z M39.2,51.4l2.9,3.4l3.1-7.3L39.2,51.4z M37.7,52.9L35,62l5.7-5.3L37.7,52.9z M44.9,38.2L43.6,33
	l-6.4,3.1L44.9,38.2z M34.2,35.4l8.6-4.3l-4.5-3.5l-12.4,5.2L34.2,35.4z M23.7,17.7l-0.6,6.5l2.3,0l1.1-5.8l3.9-2.4L29,13.2
	 M52.3,72.5c0-0.1-0.1-0.2-0.2-0.2h-0.9c-0.1,0-0.2,0.1-0.2,0.2v10.2c0,0.1,0.1,0.2,0.2,0.2h6.1v2.7c0,0.1,0.1,0.2,0.2,0.2h0.9
	c0.1,0,0.2-0.1,0.2-0.2v-3.5c0,0,0,0,0-0.1s0-0.1,0-0.1c0,0,0,0,0-0.1c0,0,0,0,0,0c0,0-0.1,0-0.1,0c0,0-0.1,0-0.2,0h-0.8v-9.3
	c0-0.1-0.1-0.2-0.2-0.2h-0.9c-0.1,0-0.2,0.1-0.2,0.2v9.3h-3.9V72.5z M64.9,81.5L64.9,81.5c-0.1,0-0.1,0-0.2,0.1
	c-0.6,0.4-1.2,0.5-1.7,0.5c-0.6,0-1.1-0.2-1.5-0.7c-0.4-0.4-0.6-1.1-0.6-1.9v-0.1h4.5c0.1,0,0.2-0.1,0.2-0.3v-0.1
	c0-2.6-0.9-3.8-2.8-3.8c-0.9,0-1.7,0.4-2.3,1.1c-0.6,0.7-0.9,1.7-0.9,2.9c0,0.7,0.1,1.4,0.3,1.9s0.5,0.9,0.8,1.2
	c0.3,0.3,0.7,0.5,1.1,0.6c0.4,0.1,0.8,0.2,1.2,0.2c0.6,0,1.2-0.1,1.8-0.4c0.4-0.2,0.6-0.3,0.6-0.4c0,0,0-0.1,0-0.1L64.9,81.5
	C65,81.5,65,81.5,64.9,81.5z M61.3,76.8c0.3-0.4,0.7-0.6,1.2-0.6c0.7,0,1.1,0.3,1.4,0.9c0.2,0.4,0.3,0.8,0.3,1.3h-3.4
	C60.8,77.8,61,77.2,61.3,76.8z M71.5,79.6v3.2c0,0.1,0.1,0.2,0.2,0.2h0.8c0.1,0,0.2-0.1,0.2-0.2v-7.3c0-0.1,0-0.1-0.1-0.1
	c0,0-0.1,0-0.1,0l-0.9,0.2c-0.1,0-0.1,0.1-0.1,0.2v2.9h-3v-3.2c0-0.1,0-0.1-0.1-0.1c0,0-0.1,0-0.1,0l-0.5,0.1l-0.3,0.1
	c-0.1,0-0.1,0.1-0.1,0.2v7.1c0,0.1,0.1,0.2,0.2,0.2h0.8c0.1,0,0.2-0.1,0.2-0.2v-3.2H71.5z M79.3,76.5c0.1,0,0.2-0.1,0.3-0.2l0.2-0.6
	c0.1-0.2,0-0.2-0.2-0.2h-5.4c-0.1,0-0.2,0.1-0.2,0.2v0.6c0,0.1,0.1,0.2,0.2,0.2h2v6.2c0,0.1,0.1,0.2,0.2,0.2h0.8
	c0.1,0,0.2-0.1,0.2-0.2v-6.2H79.3z M80.9,86.2l0.8-0.2c0.1,0,0.1-0.1,0.1-0.2v-3.2c0.5,0.4,1.1,0.5,1.7,0.5c0.2,0,0.5,0,0.7-0.1
	c0.2,0,0.5-0.2,0.7-0.3c0.3-0.2,0.5-0.4,0.7-0.7c0.2-0.3,0.4-0.7,0.5-1.2c0.1-0.5,0.2-1.1,0.2-1.8c0-0.7-0.1-1.2-0.2-1.7
	c-0.1-0.5-0.3-0.9-0.5-1.1s-0.4-0.5-0.7-0.6c-0.3-0.2-0.5-0.3-0.7-0.3c-0.2,0-0.4-0.1-0.6-0.1c-0.6,0-1.3,0.3-2.1,0.8l-0.1,0.1
	c-0.1-0.4-0.2-0.7-0.4-0.8c-0.1-0.1-0.2-0.1-0.3,0l-0.7,0.4c-0.1,0-0.1,0.1-0.1,0.1c0,0,0,0.1,0.1,0.2c0.2,0.4,0.4,0.9,0.4,1.4V86
	C80.6,86.2,80.7,86.3,80.9,86.2z M83.5,76.3c0.3,0,0.5,0.1,0.7,0.2c0.2,0.1,0.3,0.3,0.5,0.4c0.1,0.2,0.2,0.4,0.3,0.7
	c0.1,0.3,0.1,0.5,0.1,0.8c0,0.2,0,0.5,0,0.8c0,0.5,0,0.8,0,1.1c0,0.3-0.1,0.6-0.2,0.9c-0.1,0.3-0.3,0.6-0.5,0.7
	c-0.2,0.2-0.5,0.2-0.9,0.2c-0.5,0-1.1-0.2-1.7-0.5v-4.5C82.4,76.6,83,76.3,83.5,76.3z M96.3,75.5h-3.8c-0.1,0-0.2,0-0.2,0
	c0,0,0,0.1,0,0.2v0.5c0,2.2-0.1,3.7-0.2,4.5c-0.2,0.9-0.6,1.3-1.2,1.4l-0.1,0c0,0,0,0,0,0c-0.2,0-0.2,0.1-0.2,0.3l0.2,0.6
	c0,0.1,0.1,0.2,0.2,0.2h0.1c0.4,0,0.7-0.1,0.9-0.2c0.8-0.4,1.3-1.3,1.4-2.7c0.1-1.3,0.2-2.5,0.2-3.6v-0.2h1.9v6.3
	c0,0.1,0.1,0.2,0.2,0.2h0.8c0.1,0,0.2-0.1,0.2-0.2v-7C96.5,75.6,96.4,75.5,96.3,75.5z M102.2,78.3c-0.5,0-1,0.1-1.7,0.2
	c-1.5,0.3-2.2,1.2-2.2,2.5c0,0.6,0.2,1.1,0.5,1.6c0.4,0.4,0.9,0.6,1.6,0.6c0.8,0,1.5-0.3,2.1-1l0.1-0.1l0,0c0.1,0.3,0.2,0.5,0.3,0.7
	c0.1,0.2,0.3,0.3,0.4,0.2l0.7-0.4c0.1,0,0.1-0.1,0.1-0.1c0,0,0-0.1-0.1-0.1c-0.1-0.2-0.2-0.3-0.2-0.4c-0.1-0.3-0.2-0.7-0.2-1.1v-3.5
	c0-1.4-0.8-2.1-2.4-2.1c-0.7,0-1.4,0.2-2.2,0.4c-0.3,0.1-0.4,0.2-0.3,0.4l0.2,0.6c0,0.1,0.1,0.1,0.1,0.1c0,0,0.1,0,0.2-0.1
	c0.6-0.3,1.2-0.4,1.7-0.4c0.3,0,0.5,0,0.7,0.1c0.2,0.1,0.3,0.2,0.4,0.3c0.1,0.2,0.1,0.3,0.2,0.4c0,0.1,0,0.3,0,0.5v0.6H102.2z
	 M102.3,81.4c-0.6,0.6-1.2,0.9-1.7,0.9c-0.3,0-0.6-0.1-0.8-0.3c-0.2-0.2-0.3-0.5-0.3-1c0-0.4,0.1-0.7,0.3-0.9
	c0.2-0.2,0.5-0.4,0.8-0.5c0.3-0.1,0.6-0.2,0.9-0.2c0.2,0,0.5-0.1,0.7-0.1h0.2L102.3,81.4L102.3,81.4z M107.3,79.6h0.4
	c0.1,0,0.2,0,0.4,0c0.1,0,0.3,0.1,0.5,0.1c0.2,0.1,0.4,0.2,0.5,0.4c0.1,0.2,0.2,0.4,0.2,0.7c0,0.4-0.1,0.7-0.4,1
	c-0.3,0.3-0.6,0.4-1.1,0.4c-0.5,0-1.1-0.2-1.8-0.5c-0.1,0-0.1-0.1-0.2-0.1h0c-0.1,0-0.1,0-0.1,0.1l-0.3,0.6c0,0,0,0.1,0,0.1
	c0,0,0.1,0.1,0.2,0.2c0.7,0.4,1.4,0.6,2.1,0.6c0.8,0,1.5-0.2,2-0.6c0.5-0.4,0.8-1,0.8-1.7c0-0.5-0.1-0.8-0.4-1.1s-0.6-0.5-1-0.6
	c0.3-0.1,0.5-0.3,0.7-0.4c0.2-0.2,0.3-0.4,0.4-0.5s0.1-0.3,0.1-0.4c0-0.1,0-0.2,0-0.3c0-0.6-0.2-1.1-0.6-1.4c-0.4-0.4-1-0.6-1.8-0.6
	c-0.8,0-1.5,0.2-2.1,0.7c-0.2,0.2-0.3,0.3-0.3,0.4L106,77c0,0,0,0.1,0.1,0.1c0,0,0.1,0,0.2-0.1c0.5-0.4,1.1-0.7,1.6-0.7
	c0.8,0,1.3,0.4,1.3,1.2c0,0.4-0.1,0.7-0.4,0.9c-0.3,0.2-0.7,0.3-1.1,0.3h-0.3c-0.1,0-0.2,0.1-0.2,0.2v0.5
	C107.1,79.5,107.1,79.6,107.3,79.6z M117.2,81.5L117.2,81.5c-0.1,0-0.1,0-0.2,0.1c-0.6,0.4-1.2,0.5-1.7,0.5c-0.6,0-1.1-0.2-1.5-0.7
	c-0.4-0.4-0.6-1.1-0.6-1.9v-0.1h4.5c0.1,0,0.2-0.1,0.2-0.3v-0.1c0-2.6-0.9-3.8-2.8-3.8c-0.9,0-1.7,0.4-2.3,1.1
	c-0.6,0.7-0.9,1.7-0.9,2.9c0,0.7,0.1,1.4,0.3,1.9c0.2,0.5,0.5,0.9,0.8,1.2c0.3,0.3,0.7,0.5,1.1,0.6c0.4,0.1,0.8,0.2,1.2,0.2
	c0.6,0,1.2-0.1,1.8-0.4c0.4-0.2,0.6-0.3,0.6-0.4c0,0,0-0.1,0-0.1L117.2,81.5C117.3,81.5,117.3,81.5,117.2,81.5z M113.6,76.8
	c0.3-0.4,0.7-0.6,1.2-0.6c0.7,0,1.1,0.3,1.4,0.9c0.2,0.4,0.3,0.8,0.3,1.3h-3.4C113.1,77.8,113.3,77.2,113.6,76.8z M120,86.2l0.8-0.2
	c0.1,0,0.1-0.1,0.1-0.2v-3.2c0.5,0.4,1.1,0.5,1.7,0.5c0.2,0,0.5,0,0.7-0.1c0.2,0,0.5-0.2,0.7-0.3c0.3-0.2,0.5-0.4,0.7-0.7
	c0.2-0.3,0.4-0.7,0.5-1.2c0.1-0.5,0.2-1.1,0.2-1.8c0-0.7-0.1-1.2-0.2-1.7c-0.1-0.5-0.3-0.9-0.5-1.1c-0.2-0.3-0.4-0.5-0.7-0.6
	c-0.3-0.2-0.5-0.3-0.7-0.3c-0.2,0-0.4-0.1-0.6-0.1c-0.6,0-1.3,0.3-2.1,0.8l-0.1,0.1c-0.1-0.4-0.2-0.7-0.4-0.8
	c-0.1-0.1-0.2-0.1-0.3,0l-0.7,0.4c-0.1,0-0.1,0.1-0.1,0.1c0,0,0,0.1,0.1,0.2c0.2,0.4,0.4,0.9,0.4,1.4V86
	C119.7,86.2,119.8,86.3,120,86.2z M122.6,76.3c0.3,0,0.5,0.1,0.7,0.2c0.2,0.1,0.3,0.3,0.5,0.4c0.1,0.2,0.2,0.4,0.3,0.7
	c0.1,0.3,0.1,0.5,0.1,0.8c0,0.2,0,0.5,0,0.8c0,0.5,0,0.8,0,1.1c0,0.3-0.1,0.6-0.2,0.9c-0.1,0.3-0.3,0.6-0.5,0.7
	c-0.2,0.2-0.5,0.2-0.9,0.2c-0.5,0-1.1-0.2-1.7-0.5v-4.5C121.6,76.6,122.1,76.3,122.6,76.3z M131.5,79.6v3.2c0,0.1,0.1,0.2,0.2,0.2
	h0.8c0.1,0,0.2-0.1,0.2-0.2v-7.3c0-0.1,0-0.1-0.1-0.1c0,0-0.1,0-0.1,0l-0.9,0.2c-0.1,0-0.1,0.1-0.1,0.2v2.9h-3v-3.2
	c0-0.1,0-0.1-0.1-0.1c0,0-0.1,0-0.1,0l-0.5,0.1l-0.3,0.1c-0.1,0-0.1,0.1-0.1,0.2v7.1c0,0.1,0.1,0.2,0.2,0.2h0.8
	c0.1,0,0.2-0.1,0.2-0.2v-3.2H131.5z M135.7,76.1c-0.3,0.3-0.6,0.7-0.8,1.2c-0.2,0.5-0.3,1.2-0.3,1.9s0.1,1.4,0.3,1.9
	c0.2,0.5,0.5,1,0.8,1.2c0.3,0.3,0.7,0.5,1,0.6c0.3,0.1,0.7,0.2,1.1,0.2s0.7-0.1,1.1-0.2s0.7-0.3,1-0.6c0.3-0.3,0.6-0.7,0.8-1.2
	c0.2-0.5,0.3-1.2,0.3-1.9s-0.1-1.4-0.3-1.9c-0.2-0.5-0.5-1-0.8-1.2c-0.3-0.3-0.7-0.5-1-0.6s-0.7-0.2-1.1-0.2s-0.7,0.1-1.1,0.2
	C136.3,75.6,136,75.8,135.7,76.1z M137.7,82.2c-1.2,0-1.8-1-1.8-3c0-2,0.6-3,1.8-3c1.2,0,1.8,1,1.8,3
	C139.6,81.2,139,82.2,137.7,82.2z M143,83h0.8c0.1,0,0.1,0,0.2-0.1l2.4-4.1c0.1-0.2,0.4-0.6,0.8-1.4h0l0,1.5v3.9
	c0,0.1,0.1,0.2,0.2,0.2h0.8c0.1,0,0.2-0.1,0.2-0.2v-7.3c0-0.1,0-0.1-0.1-0.1c0,0-0.1,0-0.1,0l-0.9,0.2c0,0-0.1,0-0.1,0.1l-2.4,4.1
	c-0.2,0.4-0.5,0.9-0.8,1.4h0l0-1.5v-4.2c0-0.1,0-0.1-0.1-0.1c0,0-0.1,0-0.1,0l-0.5,0.1l-0.3,0.1c-0.1,0-0.1,0.1-0.1,0.2v7.1
	C142.8,82.9,142.8,83,143,83z M144.2,72.4l-0.6,0.1c-0.1,0-0.2,0.1-0.2,0.2v0c0,0,0,0.1,0,0.2c0.3,1,1,1.5,2,1.5s1.7-0.5,2-1.5
	c0-0.1,0-0.2,0-0.2v0c0-0.1-0.1-0.2-0.2-0.2l-0.6-0.1c-0.2,0-0.2,0-0.3,0.1l0,0.2c-0.1,0.6-0.4,0.9-1,0.9c-0.5,0-0.9-0.3-1-0.9
	l0-0.2C144.5,72.4,144.4,72.4,144.2,72.4z M154.9,75.6C154.9,75.6,154.9,75.6,154.9,75.6c-0.1,0.1-0.1,0.1-0.1,0.2c0,0,0,0,0,0v0.7
	c0,1.4-0.1,2.5-0.2,3.3c-0.1,0.8-0.4,1.5-0.7,2.3h-0.5c-0.1,0-0.1,0-0.2,0c0,0-0.1,0-0.1,0.1c0,0,0,0,0,0.1c0,0,0,0,0,0v2.9
	c0,0.1,0.1,0.2,0.2,0.2h0.8c0.1,0,0.2-0.1,0.2-0.2V83h4.6v2.1c0,0.1,0.1,0.2,0.2,0.2h0.8c0.1,0,0.2-0.1,0.2-0.2v-2.9c0,0,0,0,0,0
	c0,0,0,0,0-0.1c0,0,0,0,0-0.1c0,0,0,0-0.1,0c0,0-0.1,0-0.1,0h-0.7v-6.3c0-0.1-0.1-0.2-0.2-0.2h-4C155,75.5,155,75.5,154.9,75.6z
	 M158.1,82h-2.9c0.5-1.2,0.8-2.7,0.8-4.5v-1h2.1V82z M166.5,81.5L166.5,81.5c-0.1,0-0.1,0-0.2,0.1c-0.6,0.4-1.2,0.5-1.7,0.5
	c-0.6,0-1.1-0.2-1.5-0.7c-0.4-0.4-0.6-1.1-0.6-1.9v-0.1h4.5c0.1,0,0.2-0.1,0.2-0.3v-0.1c0-2.6-0.9-3.8-2.8-3.8
	c-0.9,0-1.7,0.4-2.3,1.1c-0.6,0.7-0.9,1.7-0.9,2.9c0,0.7,0.1,1.4,0.3,1.9c0.2,0.5,0.5,0.9,0.8,1.2c0.3,0.3,0.7,0.5,1.1,0.6
	s0.8,0.2,1.2,0.2c0.6,0,1.2-0.1,1.8-0.4c0.4-0.2,0.6-0.3,0.6-0.4c0,0,0-0.1,0-0.1L166.5,81.5C166.6,81.5,166.6,81.5,166.5,81.5z
	 M162.9,76.8c0.3-0.4,0.7-0.6,1.2-0.6c0.7,0,1.1,0.3,1.4,0.9c0.2,0.4,0.3,0.8,0.3,1.3h-3.4C162.4,77.8,162.6,77.2,162.9,76.8z
	 M169.3,86.2l0.8-0.2c0.1,0,0.1-0.1,0.1-0.2v-3.2c0.5,0.4,1.1,0.5,1.7,0.5c0.2,0,0.5,0,0.7-0.1c0.2,0,0.5-0.2,0.7-0.3
	c0.3-0.2,0.5-0.4,0.7-0.7c0.2-0.3,0.4-0.7,0.5-1.2c0.1-0.5,0.2-1.1,0.2-1.8c0-0.7-0.1-1.2-0.2-1.7c-0.1-0.5-0.3-0.9-0.5-1.1
	c-0.2-0.3-0.4-0.5-0.7-0.6c-0.3-0.2-0.5-0.3-0.7-0.3c-0.2,0-0.4-0.1-0.6-0.1c-0.6,0-1.3,0.3-2.1,0.8l-0.1,0.1
	c-0.1-0.4-0.2-0.7-0.4-0.8c-0.1-0.1-0.2-0.1-0.3,0l-0.7,0.4c-0.1,0-0.1,0.1-0.1,0.1c0,0,0,0.1,0.1,0.2c0.2,0.4,0.4,0.9,0.4,1.4V86
	C169,86.2,169.1,86.3,169.3,86.2z M171.9,76.3c0.3,0,0.5,0.1,0.7,0.2c0.2,0.1,0.3,0.3,0.5,0.4c0.1,0.2,0.2,0.4,0.3,0.7
	c0.1,0.3,0.1,0.5,0.1,0.8c0,0.2,0,0.5,0,0.8c0,0.5,0,0.8,0,1.1c0,0.3-0.1,0.6-0.2,0.9s-0.3,0.6-0.5,0.7c-0.2,0.2-0.5,0.2-0.9,0.2
	c-0.5,0-1.1-0.2-1.7-0.5v-4.5C170.9,76.6,171.4,76.3,171.9,76.3z M178.1,75.5H177c-0.1,0-0.1,0-0.1,0.1l-0.4,7.2
	c0,0.1,0,0.1,0.1,0.1h0.9c0.1,0,0.1,0,0.1-0.1l0.2-5.4v-0.6h0c0,0.1,0.1,0.3,0.1,0.6l1.3,3.8c0,0.1,0.1,0.2,0.2,0.2h0.6
	c0.1,0,0.1-0.1,0.2-0.2l1.3-3.8c0.1-0.2,0.1-0.4,0.1-0.6h0v0.6l0.2,5.4c0,0.1,0,0.1,0.1,0.1h0.9c0.1,0,0.1,0,0.1-0.1l-0.4-7.2
	c0-0.1-0.1-0.1-0.1-0.1h-1.1c-0.1,0-0.1,0-0.1,0.1l-1.2,3.4c-0.1,0.3-0.2,0.7-0.3,1.1h0c-0.1-0.4-0.2-0.8-0.3-1.1l-1.2-3.4
	C178.2,75.6,178.2,75.5,178.1,75.5z M188.7,78.3c-0.5,0-1,0.1-1.7,0.2c-1.5,0.3-2.2,1.2-2.2,2.5c0,0.6,0.2,1.1,0.5,1.6
	c0.4,0.4,0.9,0.6,1.6,0.6c0.8,0,1.5-0.3,2.1-1l0.1-0.1l0,0c0.1,0.3,0.2,0.5,0.3,0.7c0.1,0.2,0.3,0.3,0.4,0.2l0.7-0.4
	c0.1,0,0.1-0.1,0.1-0.1c0,0,0-0.1-0.1-0.1c-0.1-0.2-0.2-0.3-0.2-0.4c-0.1-0.3-0.2-0.7-0.2-1.1v-3.5c0-1.4-0.8-2.1-2.4-2.1
	c-0.7,0-1.4,0.2-2.2,0.4c-0.3,0.1-0.4,0.2-0.3,0.4l0.2,0.6c0,0.1,0.1,0.1,0.1,0.1c0,0,0.1,0,0.2-0.1c0.6-0.3,1.2-0.4,1.7-0.4
	c0.3,0,0.5,0,0.7,0.1c0.2,0.1,0.3,0.2,0.4,0.3c0.1,0.2,0.1,0.3,0.2,0.4c0,0.1,0,0.3,0,0.5v0.6H188.7z M188.8,81.4
	c-0.6,0.6-1.2,0.9-1.7,0.9c-0.3,0-0.6-0.1-0.8-0.3c-0.2-0.2-0.3-0.5-0.3-1c0-0.4,0.1-0.7,0.3-0.9c0.2-0.2,0.5-0.4,0.8-0.5
	c0.3-0.1,0.6-0.2,0.9-0.2c0.2,0,0.5-0.1,0.7-0.1h0.2L188.8,81.4L188.8,81.4z M196.2,76.5c0.1,0,0.2-0.1,0.3-0.2l0.2-0.6
	c0.1-0.2,0-0.2-0.2-0.2h-5.4c-0.1,0-0.2,0.1-0.2,0.2v0.6c0,0.1,0.1,0.2,0.2,0.2h2v6.2c0,0.1,0.1,0.2,0.2,0.2h0.8
	c0.1,0,0.2-0.1,0.2-0.2v-6.2H196.2z M198.4,76.1c-0.3,0.3-0.6,0.7-0.8,1.2c-0.2,0.5-0.3,1.2-0.3,1.9s0.1,1.4,0.3,1.9
	c0.2,0.5,0.5,1,0.8,1.2c0.3,0.3,0.7,0.5,1,0.6c0.3,0.1,0.7,0.2,1.1,0.2c0.4,0,0.7-0.1,1.1-0.2c0.3-0.1,0.7-0.3,1-0.6
	c0.3-0.3,0.6-0.7,0.8-1.2c0.2-0.5,0.3-1.2,0.3-1.9s-0.1-1.4-0.3-1.9c-0.2-0.5-0.5-1-0.8-1.2c-0.3-0.3-0.7-0.5-1-0.6
	c-0.3-0.1-0.7-0.2-1.1-0.2c-0.4,0-0.7,0.1-1.1,0.2C199,75.6,198.7,75.8,198.4,76.1z M200.4,82.2c-1.2,0-1.8-1-1.8-3c0-2,0.6-3,1.8-3
	c1.2,0,1.8,1,1.8,3C202.3,81.2,201.7,82.2,200.4,82.2z M210.1,75.5h-3.8c-0.1,0-0.2,0-0.2,0c0,0,0,0.1,0,0.2v0.5
	c0,2.2-0.1,3.7-0.2,4.5c-0.2,0.9-0.6,1.3-1.2,1.4l-0.1,0c0,0,0,0,0,0c-0.2,0-0.2,0.1-0.2,0.3l0.2,0.6c0,0.1,0.1,0.2,0.2,0.2h0.1
	c0.4,0,0.7-0.1,0.9-0.2c0.8-0.4,1.3-1.3,1.4-2.7c0.1-1.3,0.2-2.5,0.2-3.6v-0.2h1.9v6.3c0,0.1,0.1,0.2,0.2,0.2h0.8
	c0.1,0,0.2-0.1,0.2-0.2v-7C210.3,75.6,210.3,75.5,210.1,75.5z M213.3,76.1c-0.3,0.3-0.6,0.7-0.8,1.2c-0.2,0.5-0.3,1.2-0.3,1.9
	s0.1,1.4,0.3,1.9c0.2,0.5,0.5,1,0.8,1.2c0.3,0.3,0.7,0.5,1,0.6c0.3,0.1,0.7,0.2,1.1,0.2c0.4,0,0.7-0.1,1.1-0.2s0.7-0.3,1-0.6
	c0.3-0.3,0.6-0.7,0.8-1.2c0.2-0.5,0.3-1.2,0.3-1.9s-0.1-1.4-0.3-1.9c-0.2-0.5-0.5-1-0.8-1.2c-0.3-0.3-0.7-0.5-1-0.6
	s-0.7-0.2-1.1-0.2c-0.4,0-0.7,0.1-1.1,0.2C213.9,75.6,213.6,75.8,213.3,76.1z M215.3,82.2c-1.2,0-1.8-1-1.8-3c0-2,0.6-3,1.8-3
	c1.2,0,1.8,1,1.8,3C217.2,81.2,216.6,82.2,215.3,82.2z M220.6,83h0.8c0.1,0,0.2-0.1,0.2-0.2v-6.2h2.6c0.1,0,0.2-0.1,0.2-0.2l0.1-0.6
	c0-0.1,0-0.1,0-0.2c0-0.1-0.1-0.1-0.2-0.1h-3.8c-0.1,0-0.2,0.1-0.2,0.2v7C220.4,82.9,220.4,83,220.6,83z M225.7,83h0.8
	c0.1,0,0.1,0,0.2-0.1l2.4-4.1c0.1-0.2,0.4-0.6,0.8-1.4h0l0,1.5v3.9c0,0.1,0.1,0.2,0.2,0.2h0.8c0.1,0,0.2-0.1,0.2-0.2v-7.3
	c0-0.1,0-0.1-0.1-0.1c0,0-0.1,0-0.1,0l-0.9,0.2c0,0-0.1,0-0.1,0.1l-2.4,4.1c-0.2,0.4-0.5,0.9-0.8,1.4h0l0-1.5v-4.2
	c0-0.1,0-0.1-0.1-0.1c0,0-0.1,0-0.1,0l-0.5,0.1l-0.3,0.1c-0.1,0-0.1,0.1-0.1,0.2v7.1C225.5,82.9,225.6,83,225.7,83z M233.6,83h0.8
	c0.1,0,0.1,0,0.2-0.1l2.4-4.1c0.1-0.2,0.4-0.6,0.8-1.4h0l0,1.5v3.9c0,0.1,0.1,0.2,0.2,0.2h0.8c0.1,0,0.2-0.1,0.2-0.2v-7.3
	c0-0.1,0-0.1-0.1-0.1c0,0-0.1,0-0.1,0l-0.9,0.2c0,0-0.1,0-0.1,0.1l-2.4,4.1c-0.2,0.4-0.5,0.9-0.8,1.4h0l0-1.5v-4.2
	c0-0.1,0-0.1-0.1-0.1c0,0-0.1,0-0.1,0l-0.5,0.1l-0.3,0.1c-0.1,0-0.1,0.1-0.1,0.2v7.1C233.5,82.9,233.5,83,233.6,83z M53.2,62.6v-15
	h10.5v15h1.9V32.4h-1.9v13.2H53.2V32.4h-2.1v30.2H53.2z M73.7,61.3c1.1,1,2.7,1.5,4.7,1.5c1.6,0,3-0.2,4-0.7c1.1-0.5,2-1.3,2.7-2.5
	l0,3h1.6V47.2c0-2.6-0.6-4.5-1.7-5.7s-2.8-1.8-5.2-1.8c-2.4,0-4.2,0.6-5.2,1.7c-1.1,1.2-1.6,3-1.6,5.4h1.9c0-1.1,0.1-1.9,0.3-2.6
	c0.2-0.7,0.5-1.2,1-1.6c0.4-0.4,1-0.7,1.5-0.8c0.6-0.2,1.3-0.2,2.2-0.2c1.8,0,3.1,0.5,3.8,1.4c0.8,0.9,1.1,2.3,1.1,4.2
	c0,0.1,0,0.1,0,0.2v3.3c-1.2-0.1-2.3-0.2-3.4-0.2c-0.7,0-1.4,0-2,0.1c-1.6,0.1-2.9,0.4-4.1,0.8c-1.1,0.4-2,1.1-2.6,2
	c-0.6,0.9-0.9,2.1-0.9,3.5C72,58.8,72.5,60.4,73.7,61.3z M76.5,52.8c1.1-0.4,2.7-0.7,4.6-0.7c1.1,0,2.4,0.1,3.7,0.2v3
	c0,0.5-0.1,1-0.2,1.5c-0.1,0.5-0.3,1-0.6,1.5c-0.3,0.5-0.7,1-1.1,1.3c-0.4,0.4-1,0.7-1.7,1C80.6,60.9,79.9,61,79,61
	c-1.7,0-3-0.3-3.9-1c-0.8-0.7-1.3-1.7-1.3-3.2C73.9,54.8,74.8,53.5,76.5,52.8z M95.7,69.7v-9c0.6,0.7,1.4,1.2,2.2,1.5
	c0.8,0.3,1.9,0.5,3.1,0.5c4.8,0,7.2-2.5,7.2-7.6v-7.4c0-3-0.5-5.1-1.6-6.4c-1.1-1.3-2.8-1.9-5.3-1.9c-2.6,0-4.5,0.9-5.7,2.6
	l-0.2-2.5h-1.7v30.2H95.7z M95.7,47.2c0-1.9,0.4-3.4,1.3-4.4c0.8-1,2.2-1.5,4.2-1.5c1.2,0,2.2,0.2,2.9,0.5c0.7,0.4,1.3,1,1.7,2
	s0.6,2.3,0.6,4V55c0,1-0.1,1.9-0.2,2.6c-0.2,0.7-0.4,1.3-0.8,1.8c-0.4,0.5-0.9,0.9-1.6,1.2s-1.6,0.4-2.6,0.4c-2.1,0-3.5-0.5-4.2-1.4
	c-0.7-0.9-1.1-2.4-1.1-4.5c0-0.1,0-0.2,0-0.2V47.2z M117.1,69.7v-9c0.6,0.7,1.4,1.2,2.2,1.5c0.8,0.3,1.9,0.5,3.1,0.5
	c4.8,0,7.2-2.5,7.2-7.6v-7.4c0-3-0.5-5.1-1.6-6.4c-1.1-1.3-2.8-1.9-5.3-1.9c-2.6,0-4.5,0.9-5.7,2.6l-0.2-2.5h-1.7v30.2H117.1z
	 M117.1,47.2c0-1.9,0.4-3.4,1.3-4.4c0.8-1,2.2-1.5,4.2-1.5c1.2,0,2.2,0.2,2.9,0.5c0.7,0.4,1.3,1,1.7,2c0.4,1,0.6,2.3,0.6,4V55
	c0,1-0.1,1.9-0.2,2.6c-0.2,0.7-0.4,1.3-0.8,1.8c-0.4,0.5-0.9,0.9-1.6,1.2c-0.7,0.2-1.6,0.4-2.6,0.4c-2.1,0-3.5-0.5-4.2-1.4
	c-0.7-0.9-1.1-2.4-1.1-4.5c0-0.1,0-0.2,0-0.2V47.2z M141.2,62.7l-1,4c-0.4,1.4-1,2.2-1.7,2.6c-0.3,0.2-0.7,0.2-1.1,0.2
	c-0.6,0-1.2-0.1-2-0.4l-0.7,1.7c1,0.3,1.9,0.5,2.7,0.5c0.8,0,1.5-0.2,2.1-0.5c1.2-0.6,2-2,2.6-4l7.5-27.1h-2.2l-2.5,9.2l-2.6,10.6h0
	l-3-10.6l-2.6-9.2h-2.2L141.2,62.7z M162.1,62.6c1.4,0,2.6-0.1,3.7-0.4c1-0.3,1.9-0.6,2.5-1.1c0.7-0.5,1.2-1.2,1.6-2
	c0.4-0.8,0.6-1.8,0.8-2.8c0.2-1,0.2-2.2,0.2-3.7v-10c0-1.3,0-2.3-0.1-3.2c-0.1-0.9-0.3-1.8-0.5-2.6c-0.2-0.8-0.6-1.5-1-2
	c-0.4-0.5-0.9-1-1.6-1.4c-0.6-0.4-1.4-0.7-2.3-0.8c-0.9-0.2-2-0.3-3.2-0.3h-7.4v30.2H162.1z M156.7,34.2h5.4c0.9,0,1.8,0.1,2.5,0.2
	c0.7,0.1,1.3,0.3,1.8,0.5c0.5,0.2,0.9,0.5,1.2,0.9c0.3,0.4,0.6,0.8,0.8,1.2c0.2,0.4,0.3,0.9,0.4,1.6c0.1,0.7,0.1,1.3,0.2,1.8
	c0,0.5,0,1.2,0,2.1v10.1c0,0.7,0,1.2,0,1.7c0,0.4,0,0.9-0.1,1.4c0,0.5-0.1,1-0.2,1.3s-0.2,0.7-0.4,1.1c-0.2,0.4-0.3,0.7-0.6,0.9
	c-0.2,0.2-0.5,0.5-0.9,0.7c-0.3,0.2-0.7,0.4-1.2,0.5c-0.5,0.1-1,0.2-1.6,0.3c-0.6,0.1-1.2,0.1-2,0.1h-5.4V34.2z M178.7,60.8
	c1.2,1.3,3,1.9,5.6,1.9c4.5,0,6.7-2.1,6.7-6.3h-1.5c0,0.7-0.1,1.3-0.2,1.8c-0.1,0.5-0.4,1-0.8,1.4c-0.4,0.4-0.9,0.8-1.6,1
	c-0.7,0.2-1.6,0.3-2.6,0.3c-2.1,0-3.6-0.5-4.3-1.6c-0.8-1.1-1.2-2.8-1.2-5.3v-2.6h12.5v-3.4c0-3.1-0.5-5.3-1.6-6.6
	c-1-1.3-2.8-2-5.4-2c-2.6,0-4.4,0.7-5.6,2c-1.2,1.3-1.8,3.5-1.8,6.6v6.1C176.9,57.3,177.5,59.5,178.7,60.8z M178.8,48
	c0-2.5,0.4-4.3,1.2-5.3c0.8-1.1,2.2-1.6,4.3-1.6c1.1,0,2,0.2,2.7,0.5s1.2,0.8,1.6,1.4c0.4,0.7,0.6,1.4,0.7,2.2s0.2,1.8,0.2,3v1.6
	h-10.7V48z M199.5,62.6l0-16.3c0-1.6,0.6-2.9,1.7-3.9c0.9-0.7,1.9-1.1,3.2-1.1c0.4,0,0.7,0,1.1,0.1v-1.9c-0.4-0.1-0.8-0.1-1.2-0.1
	c-0.9,0-1.7,0.2-2.4,0.5c-1.1,0.5-1.9,1.3-2.4,2.3l-0.1-2.7h-1.8v23.1H199.5z M213.5,62.6V46.5c0-1.7,0.4-3,1.2-3.9
	c0.8-0.9,2.2-1.3,4.3-1.3c1.1,0,1.9,0.1,2.6,0.4c0.7,0.3,1.2,0.7,1.6,1.3c0.4,0.6,0.6,1.3,0.8,2c0.1,0.8,0.2,1.7,0.2,2.8v14.8h1.9
	V47.2c0-4,1.8-5.9,5.5-5.9c1.1,0,2,0.1,2.6,0.3c0.7,0.2,1.2,0.6,1.6,1.1c0.4,0.5,0.7,1.2,0.8,2s0.2,1.8,0.2,3.1v14.8h1.9V47.8
	c0-1.4-0.1-2.6-0.3-3.6c-0.2-1-0.6-1.8-1.1-2.6c-0.5-0.7-1.2-1.3-2.2-1.6c-0.9-0.4-2.1-0.5-3.5-0.5c-1.4,0-2.7,0.2-3.7,0.7
	c-1.1,0.5-2,1.3-2.9,2.7c-0.4-1-1.2-1.8-2.2-2.5c-1-0.6-2.3-0.9-3.9-0.9c-2.7,0-4.5,0.8-5.6,2.3l-0.2-1.8h-1.8v22.7H213.5z"/>
</svg>
